# xmcd CD database file
#
# Track frame offsets:
#	150
#	21528
#	39126
#	57888
#	79027
#	100352
#	125201
#	147384
#	166354
#	182382
#	201985
#	223990
#	239882
#	266606
#	290086
#	307293
#	332971
#
# Disc length: 4708 seconds
#
# Revision: 0
# Processed by: cddbd v1.5.1PL0 Copyright (c) Steve Scherf et al.
# Submitted via: CDex 1.51
#
DISCID=18126211
DTITLE=Salsa Hits - Salsa Hits Vol. 1
DYEAR=2000
DGENRE=Salsa
TTITLE0=Piel Morena - Thalia
TTITLE1=Rosalinda - Thalia
TTITLE2=Ave Maria Lola - Sonora Carruseles
TTITLE3=Por Ella - Victor Manuelle
TTITLE4=Si La Ves - Victor Manuelle
TTITLE5=Candela - Buena Vista Social Club
TTITLE6=Bombon de Azucar - Charlie Cruz
TTITLE7=Azuquita pal Cafe - El Gran Combo
TTITLE8=Salsa con Coco - El Gran Combo
TTITLE9=Vuelvo a Nacer - Frankie Ruiz
TTITLE10=El Preso - Fruko y su Tesos
TTITLE11=No Me Dejes de Querer - Gloria Estefan
TTITLE12=No Vale La Pena - Johnny Rivera and Ray Sepulveda
TTITLE13=Ven Devorame Otra Vez - Lola Rodriguez
TTITLE14=Baila Conmigo - SAned Rivera
TTITLE15=Ne Me Quittes Pas - Yuri Buenaventura
TTITLE16=Salsa - Yuri Buenaventura
EXTD=YEAR: 2000
EXTT0=
EXTT1=
EXTT2=
EXTT3=
EXTT4=
EXTT5=
EXTT6=
EXTT7=
EXTT8=
EXTT9=
EXTT10=
EXTT11=
EXTT12=
EXTT13=
EXTT14=
EXTT15=
EXTT16=
PLAYORDER=
